<svg width="275" height="270" viewBox="0 0 275 270" fill="none" xmlns="http://www.w3.org/2000/svg">
<g clip-path="url(#clip0_488_176)">
<g filter="url(#filter0_d_488_176)">
<path d="M111.075 4.78888C105.543 2.48413 99.2307 2.23865 92.6357 5.04278C86.9385 7.46524 81.3414 12.0238 75.7988 18.826C64.6292 19.1714 55.7884 21.347 49.0059 25.119C41.4462 29.3231 36.7916 35.3248 34.4297 42.0633C30.8481 52.2822 32.7224 63.5239 35.9189 72.2684C27.7033 76.079 18.4558 82.1498 12.8057 90.4949C9.07835 96.0003 6.80342 102.689 7.74609 110.267C8.67857 117.763 12.6545 125.289 19.8027 132.767L21.7227 134.776H24.501C54.7424 134.776 62.7284 151.33 63.5664 157.195C64.0742 160.749 67.3663 163.218 70.9199 162.711C74.4735 162.203 76.943 158.911 76.4355 155.357C74.6567 142.905 61.4129 122.908 27.418 121.823C22.8886 116.573 21.0827 112.169 20.6465 108.663C20.1674 104.812 21.2365 101.232 23.5713 97.783C28.499 90.505 38.4651 84.7952 46.6611 81.907L53.6367 79.449L50.3027 72.8465C46.3823 65.0825 43.8663 54.4422 46.6973 46.3641C48.0229 42.5819 50.5873 39.1146 55.3242 36.4803C60.2028 33.7672 67.6976 31.7762 79.001 31.7762H82.2422L84.1934 29.1873C89.6013 22.0078 94.1875 18.5098 97.7227 17.0067C101.042 15.5953 103.717 15.8063 106.076 16.7889C108.644 17.8588 111.208 20.0213 113.555 23.0379C115.609 25.6787 117.291 28.7107 118.501 31.5516V131.06C108.02 130.284 95.4025 127.658 86.749 122.378C81.9344 119.44 78.913 116.034 77.667 112.212C76.4534 108.489 76.5488 103.215 80.3145 95.6834C81.9198 92.4727 80.6187 88.5683 77.4082 86.9627C74.1975 85.3573 70.2931 86.6584 68.6875 89.869C63.8535 99.5371 62.7526 108.406 65.3066 116.241C67.8284 123.977 73.5384 129.546 79.9775 133.474C91.3618 140.42 106.757 143.323 118.501 144.091V173.162C114.287 173.66 107.525 172.805 101.167 166.251C98.6677 163.674 94.5524 163.611 91.9756 166.11C89.3989 168.61 89.3358 172.725 91.835 175.302C100.774 184.517 110.842 186.715 118.501 186.2V239.212C110.196 248.196 102.91 252.396 96.8623 253.851C90.7006 255.334 85.1257 254.143 79.9775 251.107C69.1793 244.739 60.7008 230.413 56.6953 217.807C55.608 214.386 51.9534 212.495 48.5322 213.582C45.1112 214.669 43.2195 218.324 44.3066 221.745C48.752 235.734 58.6148 253.601 73.374 262.305C81.0046 266.806 90.0132 268.871 99.9043 266.491C109.633 264.15 119.477 257.687 129.354 246.6C129.879 246.012 130.277 245.355 130.55 244.662C131.153 243.676 131.501 242.517 131.501 241.276V29.0516L131.055 27.91C129.449 23.8015 127.026 19.1825 123.815 15.0555C120.631 10.9628 116.399 7.00649 111.075 4.78888ZM18.1299 139.774C14.8149 138.397 11.0105 139.967 9.63281 143.282C6.20069 151.541 3.88033 164.654 8.91113 176.929C14.176 189.775 26.7475 199.976 49.5889 203.212C49.8662 203.251 50.1421 203.269 50.415 203.273C58.6797 209.919 72.117 213.152 92.1172 211.247C95.6908 210.907 98.3119 207.734 97.9717 204.16C97.6313 200.586 94.4584 197.965 90.8848 198.305C70.6803 200.23 61.433 196.086 57.4395 192.148C53.567 188.329 53.2111 183.258 54.2578 179.536C55.2297 176.08 53.2165 172.491 49.7607 171.519C46.305 170.547 42.7161 172.561 41.7441 176.016C40.7794 179.447 40.3901 183.726 41.2197 188.145C28.9944 184.436 23.4197 178.05 20.9395 171.999C17.6199 163.899 19.0439 154.512 21.6377 148.27C23.0151 144.955 21.4447 141.152 18.1299 139.774ZM73.001 51.7762C69.4111 51.7762 66.501 54.6863 66.501 58.2762C66.5011 61.8659 69.4112 64.7762 73.001 64.7762C75.5048 64.7762 79.8398 65.347 83.9873 67.076C88.1166 68.7974 91.4184 71.3798 93.1055 75.0135C94.6173 78.2693 98.4823 79.6833 101.738 78.1717C104.994 76.66 106.408 72.7948 104.896 69.5389C101.384 61.9727 94.9349 57.5556 88.9893 55.077C83.0618 52.606 76.9971 51.7762 73.001 51.7762Z" fill="#1A1A1A"/>
</g>
<g filter="url(#filter1_d_488_176)">
<path d="M163.426 4.78888C168.958 2.48413 175.27 2.23865 181.865 5.04278C187.562 7.46524 193.16 12.0238 198.702 18.826C209.872 19.1714 218.713 21.347 225.495 25.119C233.055 29.3231 237.709 35.3248 240.071 42.0633C243.653 52.2822 241.779 63.5239 238.582 72.2684C246.798 76.079 256.045 82.1498 261.695 90.4949C265.423 96.0003 267.698 102.689 266.755 110.267C265.822 117.763 261.846 125.289 254.698 132.767L252.778 134.776H250C219.759 134.776 211.773 151.33 210.935 157.195C210.427 160.749 207.135 163.218 203.581 162.711C200.027 162.203 197.558 158.911 198.065 155.357C199.844 142.905 213.088 122.908 247.083 121.823C251.612 116.573 253.418 112.169 253.854 108.663C254.334 104.812 253.265 101.232 250.93 97.783C246.002 90.505 236.036 84.7952 227.84 81.907L220.864 79.449L224.198 72.8465C228.119 65.0825 230.635 54.4422 227.804 46.3641C226.478 42.5819 223.914 39.1146 219.177 36.4803C214.298 33.7672 206.803 31.7762 195.5 31.7762H192.259L190.308 29.1873C184.9 22.0078 180.313 18.5098 176.778 17.0067C173.459 15.5953 170.784 15.8063 168.425 16.7889C165.857 17.8588 163.293 20.0213 160.946 23.0379C158.892 25.6787 157.21 28.7107 156 31.5516V131.06C166.481 130.284 179.098 127.658 187.752 122.378C192.567 119.44 195.588 116.034 196.834 112.212C198.048 108.489 197.952 103.215 194.187 95.6834C192.581 92.4727 193.882 88.5683 197.093 86.9627C200.304 85.3573 204.208 86.6584 205.813 89.869C210.648 99.5371 211.748 108.406 209.194 116.241C206.673 123.977 200.963 129.546 194.523 133.474C183.139 140.42 167.744 143.323 156 144.091V173.162C160.214 173.66 166.976 172.805 173.334 166.251C175.833 163.674 179.949 163.611 182.525 166.11C185.102 168.61 185.165 172.725 182.666 175.302C173.727 184.517 163.659 186.715 156 186.2V239.212C164.305 248.196 171.591 252.396 177.639 253.851C183.8 255.334 189.375 254.143 194.523 251.107C205.322 244.739 213.8 230.413 217.806 217.807C218.893 214.386 222.548 212.495 225.969 213.582C229.39 214.669 231.281 218.324 230.194 221.745C225.749 235.734 215.886 253.601 201.127 262.305C193.496 266.806 184.488 268.871 174.597 266.491C164.868 264.15 155.024 257.687 145.146 246.6C144.622 246.012 144.224 245.355 143.951 244.662C143.348 243.676 143 242.517 143 241.276V29.0516L143.446 27.91C145.052 23.8015 147.475 19.1825 150.686 15.0555C153.87 10.9628 158.102 7.00649 163.426 4.78888ZM256.371 139.774C259.686 138.397 263.49 139.967 264.868 143.282C268.3 151.541 270.621 164.654 265.59 176.929C260.325 189.775 247.753 199.976 224.912 203.212C224.635 203.251 224.359 203.269 224.086 203.273C215.821 209.919 202.384 213.152 182.384 211.247C178.81 210.907 176.189 207.734 176.529 204.16C176.87 200.586 180.043 197.965 183.616 198.305C203.821 200.23 213.068 196.086 217.062 192.148C220.934 188.329 221.29 183.258 220.243 179.536C219.271 176.08 221.285 172.491 224.74 171.519C228.196 170.547 231.785 172.561 232.757 176.016C233.722 179.447 234.111 183.726 233.281 188.145C245.507 184.436 251.081 178.05 253.562 171.999C256.881 163.899 255.457 154.512 252.863 148.27C251.486 144.955 253.056 141.152 256.371 139.774ZM201.5 51.7762C205.09 51.7762 208 54.6863 208 58.2762C208 61.8659 205.09 64.7762 201.5 64.7762C198.996 64.7762 194.661 65.347 190.514 67.076C186.384 68.7974 183.083 71.3798 181.396 75.0135C179.884 78.2693 176.019 79.6833 172.763 78.1717C169.507 76.66 168.093 72.7948 169.604 69.5389C173.117 61.9727 179.566 57.5556 185.512 55.077C191.439 52.606 197.504 51.7762 201.5 51.7762Z" fill="#1A1A1A"/>
</g>
</g>
<defs>
<filter id="filter0_d_488_176" x="-6.4" y="-5.4" width="150.301" height="289.29" filterUnits="userSpaceOnUse" color-interpolation-filters="sRGB">
<feFlood flood-opacity="0" result="BackgroundImageFix"/>
<feColorMatrix in="SourceAlpha" type="matrix" values="0 0 0 0 0 0 0 0 0 0 0 0 0 0 0 0 0 0 127 0" result="hardAlpha"/>
<feOffset dy="4"/>
<feGaussianBlur stdDeviation="6.2"/>
<feComposite in2="hardAlpha" operator="out"/>
<feColorMatrix type="matrix" values="0 0 0 0 1 0 0 0 0 1 0 0 0 0 1 0 0 0 0.42 0"/>
<feBlend mode="normal" in2="BackgroundImageFix" result="effect1_dropShadow_488_176"/>
<feBlend mode="normal" in="SourceGraphic" in2="effect1_dropShadow_488_176" result="shape"/>
</filter>
<filter id="filter1_d_488_176" x="130.6" y="-5.4" width="150.301" height="289.29" filterUnits="userSpaceOnUse" color-interpolation-filters="sRGB">
<feFlood flood-opacity="0" result="BackgroundImageFix"/>
<feColorMatrix in="SourceAlpha" type="matrix" values="0 0 0 0 0 0 0 0 0 0 0 0 0 0 0 0 0 0 127 0" result="hardAlpha"/>
<feOffset dy="4"/>
<feGaussianBlur stdDeviation="6.2"/>
<feComposite in2="hardAlpha" operator="out"/>
<feColorMatrix type="matrix" values="0 0 0 0 1 0 0 0 0 1 0 0 0 0 1 0 0 0 0.42 0"/>
<feBlend mode="normal" in2="BackgroundImageFix" result="effect1_dropShadow_488_176"/>
<feBlend mode="normal" in="SourceGraphic" in2="effect1_dropShadow_488_176" result="shape"/>
</filter>
<clipPath id="clip0_488_176">
<rect width="275" height="270" fill="white"/>
</clipPath>
</defs>
</svg>
